<?xml version="1.0" encoding="UTF-8" standalone="no"?>
<svg
   xmlns:dc="http://purl.org/dc/elements/1.1/"
   xmlns:cc="http://creativecommons.org/ns#"
   xmlns:rdf="http://www.w3.org/1999/02/22-rdf-syntax-ns#"
   xmlns:svg="http://www.w3.org/2000/svg"
   xmlns="http://www.w3.org/2000/svg"
   xmlns:xlink="http://www.w3.org/1999/xlink"
   width="662"
   height="1222"
   version="1.1"
   id="svg838">
  <metadata
     id="metadata844">
    <rdf:RDF>
      <cc:Work
         rdf:about="">
        <dc:format>image/svg+xml</dc:format>
        <dc:type
           rdf:resource="http://purl.org/dc/dcmitype/StillImage" />
        <dc:title></dc:title>
      </cc:Work>
    </rdf:RDF>
  </metadata>
  <defs
     id="defs842">
    <defs
       id="defs834">
      <path
         fill="#3d4752"
         d="M212-179c-10-28-35-45-73-45-59 0-87 40-87 99 0 60 29 101 89 101 43 0 62-24 78-52l27 14C228-24 195 4 139 4 59 4 22-46 18-125c-6-104 99-153 187-111 19 9 31 26 39 46"
         id="W" />
      <path
         fill="#3d4752"
         d="M140-251c81 0 123 46 123 126C263-46 219 4 140 4 59 4 17-45 17-125s42-126 123-126zm0 227c63 0 89-41 89-101s-29-99-89-99c-61 0-89 39-89 99S79-25 140-24"
         id="X" />
      <path
         fill="#3d4752"
         d="M190 0L58-211 59 0H30v-248h39L202-35l-2-213h31V0h-41"
         id="Y" />
      <path
         fill="#3d4752"
         d="M153-248C145-148 188 4 80 4 36 3 13-21 6-62l32-5c4 25 16 42 43 43 27 0 39-20 39-49v-147H72v-28h81"
         id="Z" />
      <path
         fill="#3d4752"
         d="M232-93c-1 65-40 97-104 97C67 4 28-28 28-90v-158h33c8 89-33 224 67 224 102 0 64-133 71-224h33v155"
         id="aa" />
      <path
         fill="#3d4752"
         d="M233-177c-1 41-23 64-60 70L243 0h-38l-65-103H63V0H30v-248c88 3 205-21 203 71zM63-129c60-2 137 13 137-47 0-61-80-42-137-45v92"
         id="ab" />
      <path
         fill="#3d4752"
         d="M30 0v-248h187v28H63v79h144v27H63v87h162V0H30"
         id="ac" />
      <g
         id="b">
        <use
           transform="matrix(0.07407407407407408,0,0,0.07407407407407408,0,0)"
           xlink:href="#W"
           id="use183" />
        <use
           transform="matrix(0.06172839506172839,0,0,0.06172839506172839,19.185185185185187,0)"
           xlink:href="#X"
           id="use185" />
        <use
           transform="matrix(0.06172839506172839,0,0,0.06172839506172839,36.46913580246914,0)"
           xlink:href="#Y"
           id="use187" />
        <use
           transform="matrix(0.06172839506172839,0,0,0.06172839506172839,52.45679012345679,0)"
           xlink:href="#Z"
           id="use189" />
        <use
           transform="matrix(0.06172839506172839,0,0,0.06172839506172839,63.5679012345679,0)"
           xlink:href="#aa"
           id="use191" />
        <use
           transform="matrix(0.06172839506172839,0,0,0.06172839506172839,79.55555555555556,0)"
           xlink:href="#ab"
           id="use193" />
        <use
           transform="matrix(0.06172839506172839,0,0,0.06172839506172839,95.54320987654322,0)"
           xlink:href="#ac"
           id="use195" />
      </g>
      <path
         fill="#3d4752"
         d="M205 0l-28-72H64L36 0H1l101-248h38L239 0h-34zm-38-99l-47-123c-12 45-31 82-46 123h93"
         id="ad" />
      <path
         fill="#3d4752"
         d="M84 4C-5 8 30-112 23-190h32v120c0 31 7 50 39 49 72-2 45-101 50-169h31l1 190h-30c-1-10 1-25-2-33-11 22-28 36-60 37"
         id="ae" />
      <path
         fill="#3d4752"
         d="M59-47c-2 24 18 29 38 22v24C64 9 27 4 27-40v-127H5v-23h24l9-43h21v43h35v23H59v120"
         id="af" />
      <path
         fill="#3d4752"
         d="M100-194c62-1 85 37 85 99 1 63-27 99-86 99S16-35 15-95c0-66 28-99 85-99zM99-20c44 1 53-31 53-75 0-43-8-75-51-75s-53 32-53 75 10 74 51 75"
         id="ag" />
      <path
         fill="#3d4752"
         d="M210-169c-67 3-38 105-44 169h-31v-121c0-29-5-50-35-48C34-165 62-65 56 0H25l-1-190h30c1 10-1 24 2 32 10-44 99-50 107 0 11-21 27-35 58-36 85-2 47 119 55 194h-31v-121c0-29-5-49-35-48"
         id="ah" />
      <path
         fill="#3d4752"
         d="M141-36C126-15 110 5 73 4 37 3 15-17 15-53c-1-64 63-63 125-63 3-35-9-54-41-54-24 1-41 7-42 31l-33-3c5-37 33-52 76-52 45 0 72 20 72 64v82c-1 20 7 32 28 27v20c-31 9-61-2-59-35zM48-53c0 20 12 33 32 33 41-3 63-29 60-74-43 2-92-5-92 41"
         id="ai" />
      <path
         fill="#3d4752"
         d="M100-194c63 0 86 42 84 106H49c0 40 14 67 53 68 26 1 43-12 49-29l28 8c-11 28-37 45-77 45C44 4 14-33 15-96c1-61 26-98 85-98zm52 81c6-60-76-77-97-28-3 7-6 17-6 28h103"
         id="aj" />
      <path
         fill="#3d4752"
         d="M85-194c31 0 48 13 60 33l-1-100h32l1 261h-30c-2-10 0-23-3-31C134-8 116 4 85 4 32 4 16-35 15-94c0-66 23-100 70-100zm9 24c-40 0-46 34-46 75 0 40 6 74 45 74 42 0 51-32 51-76 0-42-9-74-50-73"
         id="ak" />
      <g
         id="c">
        <use
           transform="matrix(0.07407407407407407,0,0,0.07407407407407407,0,0)"
           xlink:href="#ad"
           id="use206" />
        <use
           transform="matrix(0.07407407407407407,0,0,0.07407407407407407,17.77777777777778,0)"
           xlink:href="#ae"
           id="use208" />
        <use
           transform="matrix(0.07407407407407407,0,0,0.07407407407407407,32.592592592592595,0)"
           xlink:href="#af"
           id="use210" />
        <use
           transform="matrix(0.07407407407407407,0,0,0.07407407407407407,40,0)"
           xlink:href="#ag"
           id="use212" />
        <use
           transform="matrix(0.07407407407407407,0,0,0.07407407407407407,54.81481481481481,0)"
           xlink:href="#ah"
           id="use214" />
        <use
           transform="matrix(0.07407407407407407,0,0,0.07407407407407407,76.96296296296296,0)"
           xlink:href="#ai"
           id="use216" />
        <use
           transform="matrix(0.07407407407407407,0,0,0.07407407407407407,91.77777777777777,0)"
           xlink:href="#af"
           id="use218" />
        <use
           transform="matrix(0.07407407407407407,0,0,0.07407407407407407,99.18518518518518,0)"
           xlink:href="#aj"
           id="use220" />
        <use
           transform="matrix(0.07407407407407407,0,0,0.07407407407407407,114,0)"
           xlink:href="#ak"
           id="use222" />
      </g>
      <path
         fill="#3d4752"
         d="M24 0v-261h32V0H24"
         id="al" />
      <path
         fill="#3d4752"
         d="M24-231v-30h32v30H24zM24 0v-190h32V0H24"
         id="am" />
      <path
         fill="#3d4752"
         d="M117-194c89-4 53 116 60 194h-32v-121c0-31-8-49-39-48C34-167 62-67 57 0H25l-1-190h30c1 10-1 24 2 32 11-22 29-35 61-36"
         id="an" />
      <path
         fill="#3d4752"
         d="M177-190C167-65 218 103 67 71c-23-6-38-20-44-43l32-5c15 47 100 32 89-28v-30C133-14 115 1 83 1 29 1 15-40 15-95c0-56 16-97 71-98 29-1 48 16 59 35 1-10 0-23 2-32h30zM94-22c36 0 50-32 50-73 0-42-14-75-50-75-39 0-46 34-46 75s6 73 46 73"
         id="ao" />
      <g
         id="d">
        <use
           transform="matrix(0.07407407407407407,0,0,0.07407407407407407,0,0)"
           xlink:href="#ah"
           id="use229" />
        <use
           transform="matrix(0.07407407407407407,0,0,0.07407407407407407,22.148148148148145,0)"
           xlink:href="#ag"
           id="use231" />
        <use
           transform="matrix(0.07407407407407407,0,0,0.07407407407407407,36.96296296296296,0)"
           xlink:href="#ak"
           id="use233" />
        <use
           transform="matrix(0.07407407407407407,0,0,0.07407407407407407,51.77777777777777,0)"
           xlink:href="#aj"
           id="use235" />
        <use
           transform="matrix(0.07407407407407407,0,0,0.07407407407407407,66.59259259259258,0)"
           xlink:href="#al"
           id="use237" />
        <use
           transform="matrix(0.07407407407407407,0,0,0.07407407407407407,72.44444444444443,0)"
           xlink:href="#al"
           id="use239" />
        <use
           transform="matrix(0.07407407407407407,0,0,0.07407407407407407,78.29629629629628,0)"
           xlink:href="#am"
           id="use241" />
        <use
           transform="matrix(0.07407407407407407,0,0,0.07407407407407407,84.14814814814812,0)"
           xlink:href="#an"
           id="use243" />
        <use
           transform="matrix(0.07407407407407407,0,0,0.07407407407407407,98.96296296296295,0)"
           xlink:href="#ao"
           id="use245" />
      </g>
      <g
         id="e">
        <use
           transform="matrix(0.07407407407407407,0,0,0.07407407407407407,0,0)"
           xlink:href="#af"
           id="use248" />
        <use
           transform="matrix(0.07407407407407407,0,0,0.07407407407407407,7.4074074074074066,0)"
           xlink:href="#ag"
           id="use250" />
        <use
           transform="matrix(0.07407407407407407,0,0,0.07407407407407407,22.22222222222222,0)"
           xlink:href="#ag"
           id="use252" />
        <use
           transform="matrix(0.07407407407407407,0,0,0.07407407407407407,37.03703703703704,0)"
           xlink:href="#al"
           id="use254" />
      </g>
      <path
         fill="#3d4752"
         d="M30-248c87 1 191-15 191 75 0 78-77 80-158 76V0H30v-248zm33 125c57 0 124 11 124-50 0-59-68-47-124-48v98"
         id="ap" />
      <path
         fill="#3d4752"
         d="M114-163C36-179 61-72 57 0H25l-1-190h30c1 12-1 29 2 39 6-27 23-49 58-41v29"
         id="aq" />
      <path
         fill="#3d4752"
         d="M108 0H70L1-190h34L89-25l56-165h34"
         id="ar" />
      <path
         fill="#3d4752"
         d="M135-143c-3-34-86-38-87 0 15 53 115 12 119 90S17 21 10-45l28-5c4 36 97 45 98 0-10-56-113-15-118-90-4-57 82-63 122-42 12 7 21 19 24 35"
         id="as" />
      <g
         id="f">
        <use
           transform="matrix(0.07407407407407407,0,0,0.07407407407407407,0,0)"
           xlink:href="#ap"
           id="use261" />
        <use
           transform="matrix(0.07407407407407407,0,0,0.07407407407407407,17.77777777777778,0)"
           xlink:href="#aq"
           id="use263" />
        <use
           transform="matrix(0.07407407407407407,0,0,0.07407407407407407,26.592592592592595,0)"
           xlink:href="#ag"
           id="use265" />
        <use
           transform="matrix(0.07407407407407407,0,0,0.07407407407407407,41.407407407407405,0)"
           xlink:href="#ar"
           id="use267" />
        <use
           transform="matrix(0.07407407407407407,0,0,0.07407407407407407,54.740740740740726,0)"
           xlink:href="#am"
           id="use269" />
        <use
           transform="matrix(0.07407407407407407,0,0,0.07407407407407407,60.59259259259258,0)"
           xlink:href="#ak"
           id="use271" />
        <use
           transform="matrix(0.07407407407407407,0,0,0.07407407407407407,75.40740740740739,0)"
           xlink:href="#aj"
           id="use273" />
        <use
           transform="matrix(0.07407407407407407,0,0,0.07407407407407407,90.2222222222222,0)"
           xlink:href="#as"
           id="use275" />
      </g>
      <path
         fill="#3d4752"
         d="M115-194c55 1 70 41 70 98S169 2 115 4C84 4 66-9 55-30l1 105H24l-1-265h31l2 30c10-21 28-34 59-34zm-8 174c40 0 45-34 45-75s-6-73-45-74c-42 0-51 32-51 76 0 43 10 73 51 73"
         id="at" />
      <g
         id="g">
        <use
           transform="matrix(0.07407407407407407,0,0,0.07407407407407407,0,0)"
           xlink:href="#ah"
           id="use279" />
        <use
           transform="matrix(0.07407407407407407,0,0,0.07407407407407407,22.148148148148145,0)"
           xlink:href="#ae"
           id="use281" />
        <use
           transform="matrix(0.07407407407407407,0,0,0.07407407407407407,36.96296296296296,0)"
           xlink:href="#al"
           id="use283" />
        <use
           transform="matrix(0.07407407407407407,0,0,0.07407407407407407,42.81481481481481,0)"
           xlink:href="#af"
           id="use285" />
        <use
           transform="matrix(0.07407407407407407,0,0,0.07407407407407407,50.222222222222214,0)"
           xlink:href="#am"
           id="use287" />
        <use
           transform="matrix(0.07407407407407407,0,0,0.07407407407407407,56.07407407407406,0)"
           xlink:href="#at"
           id="use289" />
        <use
           transform="matrix(0.07407407407407407,0,0,0.07407407407407407,70.88888888888887,0)"
           xlink:href="#al"
           id="use291" />
        <use
           transform="matrix(0.07407407407407407,0,0,0.07407407407407407,76.74074074074072,0)"
           xlink:href="#aj"
           id="use293" />
      </g>
      <g
         id="h">
        <use
           transform="matrix(0.07407407407407407,0,0,0.07407407407407407,0,0)"
           xlink:href="#ah"
           id="use296" />
        <use
           transform="matrix(0.07407407407407407,0,0,0.07407407407407407,22.148148148148145,0)"
           xlink:href="#ag"
           id="use298" />
        <use
           transform="matrix(0.07407407407407407,0,0,0.07407407407407407,36.96296296296296,0)"
           xlink:href="#ak"
           id="use300" />
        <use
           transform="matrix(0.07407407407407407,0,0,0.07407407407407407,51.77777777777777,0)"
           xlink:href="#aj"
           id="use302" />
        <use
           transform="matrix(0.07407407407407407,0,0,0.07407407407407407,66.59259259259258,0)"
           xlink:href="#al"
           id="use304" />
        <use
           transform="matrix(0.07407407407407407,0,0,0.07407407407407407,72.44444444444443,0)"
           xlink:href="#as"
           id="use306" />
      </g>
      <path
         fill="#3d4752"
         d="M101-234c-31-9-42 10-38 44h38v23H63V0H32v-167H5v-23h27c-7-52 17-82 69-68v24"
         id="au" />
      <g
         id="i">
        <use
           transform="matrix(0.07407407407407407,0,0,0.07407407407407407,0,0)"
           xlink:href="#ag"
           id="use310" />
        <use
           transform="matrix(0.07407407407407407,0,0,0.07407407407407407,14.814814814814813,0)"
           xlink:href="#au"
           id="use312" />
      </g>
      <path
         fill="#3d4752"
         d="M68-38c1 34 0 65-14 84H32c9-13 17-26 17-46H33v-38h35"
         id="av" />
      <g
         id="j">
        <use
           transform="matrix(0.07407407407407407,0,0,0.07407407407407407,0,0)"
           xlink:href="#as"
           id="use316" />
        <use
           transform="matrix(0.07407407407407407,0,0,0.07407407407407407,13.333333333333332,0)"
           xlink:href="#aj"
           id="use318" />
        <use
           transform="matrix(0.07407407407407407,0,0,0.07407407407407407,28.148148148148145,0)"
           xlink:href="#af"
           id="use320" />
        <use
           transform="matrix(0.07407407407407407,0,0,0.07407407407407407,35.55555555555555,0)"
           xlink:href="#as"
           id="use322" />
        <use
           transform="matrix(0.07407407407407407,0,0,0.07407407407407407,48.888888888888886,0)"
           xlink:href="#av"
           id="use324" />
      </g>
      <g
         id="k">
        <use
           transform="matrix(0.07407407407407407,0,0,0.07407407407407407,0,0)"
           xlink:href="#ah"
           id="use327" />
        <use
           transform="matrix(0.07407407407407407,0,0,0.07407407407407407,22.148148148148145,0)"
           xlink:href="#ae"
           id="use329" />
        <use
           transform="matrix(0.07407407407407407,0,0,0.07407407407407407,36.96296296296296,0)"
           xlink:href="#al"
           id="use331" />
        <use
           transform="matrix(0.07407407407407407,0,0,0.07407407407407407,42.81481481481481,0)"
           xlink:href="#af"
           id="use333" />
        <use
           transform="matrix(0.07407407407407407,0,0,0.07407407407407407,50.222222222222214,0)"
           xlink:href="#am"
           id="use335" />
        <use
           transform="matrix(0.07407407407407407,0,0,0.07407407407407407,56.07407407407406,0)"
           xlink:href="#as"
           id="use337" />
        <use
           transform="matrix(0.07407407407407407,0,0,0.07407407407407407,69.40740740740739,0)"
           xlink:href="#aj"
           id="use339" />
        <use
           transform="matrix(0.07407407407407407,0,0,0.07407407407407407,84.2222222222222,0)"
           xlink:href="#af"
           id="use341" />
        <use
           transform="matrix(0.07407407407407407,0,0,0.07407407407407407,91.6296296296296,0)"
           xlink:href="#as"
           id="use343" />
        <use
           transform="matrix(0.07407407407407407,0,0,0.07407407407407407,104.96296296296293,0)"
           xlink:href="#av"
           id="use345" />
      </g>
      <path
         fill="#3d4752"
         d="M96-169c-40 0-48 33-48 73s9 75 48 75c24 0 41-14 43-38l32 2c-6 37-31 61-74 61-59 0-76-41-82-99-10-93 101-131 147-64 4 7 5 14 7 22l-32 3c-4-21-16-35-41-35"
         id="aw" />
      <g
         id="l">
        <use
           transform="matrix(0.07407407407407407,0,0,0.07407407407407407,0,0)"
           xlink:href="#au"
           id="use349" />
        <use
           transform="matrix(0.07407407407407407,0,0,0.07407407407407407,7.4074074074074066,0)"
           xlink:href="#ae"
           id="use351" />
        <use
           transform="matrix(0.07407407407407407,0,0,0.07407407407407407,22.22222222222222,0)"
           xlink:href="#an"
           id="use353" />
        <use
           transform="matrix(0.07407407407407407,0,0,0.07407407407407407,37.03703703703704,0)"
           xlink:href="#aw"
           id="use355" />
        <use
           transform="matrix(0.07407407407407407,0,0,0.07407407407407407,50.37037037037037,0)"
           xlink:href="#af"
           id="use357" />
        <use
           transform="matrix(0.07407407407407407,0,0,0.07407407407407407,57.77777777777777,0)"
           xlink:href="#am"
           id="use359" />
        <use
           transform="matrix(0.07407407407407407,0,0,0.07407407407407407,63.62962962962962,0)"
           xlink:href="#ag"
           id="use361" />
        <use
           transform="matrix(0.07407407407407407,0,0,0.07407407407407407,78.44444444444443,0)"
           xlink:href="#an"
           id="use363" />
        <use
           transform="matrix(0.07407407407407407,0,0,0.07407407407407407,93.25925925925924,0)"
           xlink:href="#as"
           id="use365" />
        <use
           transform="matrix(0.07407407407407407,0,0,0.07407407407407407,106.59259259259257,0)"
           xlink:href="#av"
           id="use367" />
      </g>
      <path
         fill="#3d4752"
         d="M33 0v-38h34V0H33"
         id="ax" />
      <g
         id="m">
        <use
           transform="matrix(0.07407407407407407,0,0,0.07407407407407407,0,0)"
           xlink:href="#aq"
           id="use371" />
        <use
           transform="matrix(0.07407407407407407,0,0,0.07407407407407407,8.814814814814815,0)"
           xlink:href="#aj"
           id="use373" />
        <use
           transform="matrix(0.07407407407407407,0,0,0.07407407407407407,23.629629629629623,0)"
           xlink:href="#al"
           id="use375" />
        <use
           transform="matrix(0.07407407407407407,0,0,0.07407407407407407,29.481481481481477,0)"
           xlink:href="#ai"
           id="use377" />
        <use
           transform="matrix(0.07407407407407407,0,0,0.07407407407407407,44.29629629629629,0)"
           xlink:href="#af"
           id="use379" />
        <use
           transform="matrix(0.07407407407407407,0,0,0.07407407407407407,51.703703703703695,0)"
           xlink:href="#am"
           id="use381" />
        <use
           transform="matrix(0.07407407407407407,0,0,0.07407407407407407,57.55555555555554,0)"
           xlink:href="#ag"
           id="use383" />
        <use
           transform="matrix(0.07407407407407407,0,0,0.07407407407407407,72.37037037037035,0)"
           xlink:href="#an"
           id="use385" />
        <use
           transform="matrix(0.07407407407407407,0,0,0.07407407407407407,87.18518518518516,0)"
           xlink:href="#as"
           id="use387" />
        <use
           transform="matrix(0.07407407407407407,0,0,0.07407407407407407,100.51851851851849,0)"
           xlink:href="#ax"
           id="use389" />
        <use
           transform="matrix(0.07407407407407407,0,0,0.07407407407407407,107.92592592592591,0)"
           xlink:href="#ax"
           id="use391" />
        <use
           transform="matrix(0.07407407407407407,0,0,0.07407407407407407,115.3333333333333,0)"
           xlink:href="#ax"
           id="use393" />
      </g>
      <filter
         id="a"
         filterUnits="objectBoundingBox"
         x="-.03"
         y="-.02"
         width="1.06"
         height="1.1">
        <feOffset
           result="offOut"
           in="SourceAlpha"
           dy="6"
           id="feOffset396" />
        <feGaussianBlur
           result="blurOut"
           in="offOut"
           stdDeviation="5"
           id="feGaussianBlur398" />
        <feColorMatrix
           result="colorOut"
           in="blurOut"
           values="0 0 0 0 0 0 0 0 0 0 0 0 0 0 0 0 0 0 0.16862745098039217 0"
           id="feColorMatrix400" />
        <feBlend
           in="SourceGraphic"
           in2="colorOut"
           id="feBlend402" />
      </filter>
      <path
         fill="#3d4752"
         d="M185-189c-5-48-123-54-124 2 14 75 158 14 163 119 3 78-121 87-175 55-17-10-28-26-33-46l33-7c5 56 141 63 141-1 0-78-155-14-162-118-5-82 145-84 179-34 5 7 8 16 11 25"
         id="ay" />
      <path
         fill="#3d4752"
         d="M137 0h-34L2-248h35l83 218 83-218h36"
         id="az" />
      <path
         fill="#3d4752"
         d="M33 0v-248h34V0H33"
         id="aA" />
      <path
         fill="#3d4752"
         d="M30 0v-248h33v221h125V0H30"
         id="aB" />
      <g
         id="o">
        <use
           transform="matrix(0.07407407407407408,0,0,0.07407407407407408,0,0)"
           xlink:href="#ay"
           id="use409" />
        <use
           transform="matrix(0.06172839506172839,0,0,0.06172839506172839,17.77777777777778,0)"
           xlink:href="#ad"
           id="use411" />
        <use
           transform="matrix(0.06172839506172839,0,0,0.06172839506172839,30.925925925925924,0)"
           xlink:href="#az"
           id="use413" />
        <use
           transform="matrix(0.06172839506172839,0,0,0.06172839506172839,45.74074074074073,0)"
           xlink:href="#aA"
           id="use415" />
        <use
           transform="matrix(0.06172839506172839,0,0,0.06172839506172839,51.913580246913575,0)"
           xlink:href="#aB"
           id="use417" />
        <use
           transform="matrix(0.06172839506172839,0,0,0.06172839506172839,64.25925925925925,0)"
           xlink:href="#ac"
           id="use419" />
      </g>
      <path
         fill="#3d4752"
         d="M266 0h-40l-56-210L115 0H75L2-248h35L96-30l15-64 43-154h32l59 218 59-218h35"
         id="aC" />
      <g
         id="p">
        <use
           transform="matrix(0.07407407407407407,0,0,0.07407407407407407,0,0)"
           xlink:href="#ab"
           id="use423" />
        <use
           transform="matrix(0.06172839506172839,0,0,0.06172839506172839,19.185185185185183,0)"
           xlink:href="#X"
           id="use425" />
        <use
           transform="matrix(0.06172839506172839,0,0,0.06172839506172839,36.46913580246913,0)"
           xlink:href="#aC"
           id="use427" />
      </g>
      <g
         id="q">
        <use
           transform="matrix(0.07407407407407407,0,0,0.07407407407407407,0,0)"
           xlink:href="#ab"
           id="use430" />
        <use
           transform="matrix(0.07407407407407407,0,0,0.07407407407407407,19.185185185185183,0)"
           xlink:href="#aj"
           id="use432" />
        <use
           transform="matrix(0.07407407407407407,0,0,0.07407407407407407,34,0)"
           xlink:href="#au"
           id="use434" />
        <use
           transform="matrix(0.07407407407407407,0,0,0.07407407407407407,41.407407407407405,0)"
           xlink:href="#ag"
           id="use436" />
        <use
           transform="matrix(0.07407407407407407,0,0,0.07407407407407407,56.22222222222221,0)"
           xlink:href="#aq"
           id="use438" />
        <use
           transform="matrix(0.07407407407407407,0,0,0.07407407407407407,65.03703703703702,0)"
           xlink:href="#ah"
           id="use440" />
        <use
           transform="matrix(0.07407407407407407,0,0,0.07407407407407407,87.18518518518516,0)"
           xlink:href="#ae"
           id="use442" />
        <use
           transform="matrix(0.07407407407407407,0,0,0.07407407407407407,101.99999999999997,0)"
           xlink:href="#al"
           id="use444" />
        <use
           transform="matrix(0.07407407407407407,0,0,0.07407407407407407,107.85185185185182,0)"
           xlink:href="#ai"
           id="use446" />
        <use
           transform="matrix(0.07407407407407407,0,0,0.07407407407407407,122.66666666666663,0)"
           xlink:href="#af"
           id="use448" />
        <use
           transform="matrix(0.07407407407407407,0,0,0.07407407407407407,130.07407407407405,0)"
           xlink:href="#am"
           id="use450" />
        <use
           transform="matrix(0.07407407407407407,0,0,0.07407407407407407,135.9259259259259,0)"
           xlink:href="#ag"
           id="use452" />
        <use
           transform="matrix(0.07407407407407407,0,0,0.07407407407407407,150.7407407407407,0)"
           xlink:href="#an"
           id="use454" />
        <use
           transform="matrix(0.07407407407407407,0,0,0.07407407407407407,165.55555555555551,0)"
           xlink:href="#as"
           id="use456" />
      </g>
      <g
         id="r">
        <use
           transform="matrix(0.07407407407407407,0,0,0.07407407407407407,0,0)"
           xlink:href="#af"
           id="use459" />
        <use
           transform="matrix(0.07407407407407407,0,0,0.07407407407407407,7.4074074074074066,0)"
           xlink:href="#ag"
           id="use461" />
      </g>
      <g
         id="s">
        <use
           transform="matrix(0.07407407407407407,0,0,0.07407407407407407,0,0)"
           xlink:href="#am"
           id="use464" />
        <use
           transform="matrix(0.07407407407407407,0,0,0.07407407407407407,5.851851851851851,0)"
           xlink:href="#ah"
           id="use466" />
        <use
           transform="matrix(0.07407407407407407,0,0,0.07407407407407407,28,0)"
           xlink:href="#at"
           id="use468" />
        <use
           transform="matrix(0.07407407407407407,0,0,0.07407407407407407,42.81481481481481,0)"
           xlink:href="#aq"
           id="use470" />
        <use
           transform="matrix(0.07407407407407407,0,0,0.07407407407407407,51.629629629629626,0)"
           xlink:href="#ag"
           id="use472" />
        <use
           transform="matrix(0.07407407407407407,0,0,0.07407407407407407,66.44444444444444,0)"
           xlink:href="#ar"
           id="use474" />
        <use
           transform="matrix(0.07407407407407407,0,0,0.07407407407407407,79.77777777777777,0)"
           xlink:href="#aj"
           id="use476" />
      </g>
      <g
         id="t">
        <use
           transform="matrix(0.07407407407407407,0,0,0.07407407407407407,0,0)"
           xlink:href="#ah"
           id="use479" />
        <use
           transform="matrix(0.07407407407407407,0,0,0.07407407407407407,22.148148148148145,0)"
           xlink:href="#ag"
           id="use481" />
        <use
           transform="matrix(0.07407407407407407,0,0,0.07407407407407407,36.96296296296296,0)"
           xlink:href="#ak"
           id="use483" />
        <use
           transform="matrix(0.07407407407407407,0,0,0.07407407407407407,51.77777777777777,0)"
           xlink:href="#aj"
           id="use485" />
        <use
           transform="matrix(0.07407407407407407,0,0,0.07407407407407407,66.59259259259258,0)"
           xlink:href="#al"
           id="use487" />
      </g>
      <g
         id="u">
        <use
           transform="matrix(0.07407407407407407,0,0,0.07407407407407407,0,0)"
           xlink:href="#at"
           id="use490" />
        <use
           transform="matrix(0.07407407407407407,0,0,0.07407407407407407,14.814814814814813,0)"
           xlink:href="#aj"
           id="use492" />
        <use
           transform="matrix(0.07407407407407407,0,0,0.07407407407407407,29.629629629629626,0)"
           xlink:href="#aq"
           id="use494" />
        <use
           transform="matrix(0.07407407407407407,0,0,0.07407407407407407,38.44444444444444,0)"
           xlink:href="#au"
           id="use496" />
        <use
           transform="matrix(0.07407407407407407,0,0,0.07407407407407407,45.85185185185185,0)"
           xlink:href="#ag"
           id="use498" />
        <use
           transform="matrix(0.07407407407407407,0,0,0.07407407407407407,60.66666666666666,0)"
           xlink:href="#aq"
           id="use500" />
        <use
           transform="matrix(0.07407407407407407,0,0,0.07407407407407407,69.48148148148147,0)"
           xlink:href="#ah"
           id="use502" />
        <use
           transform="matrix(0.07407407407407407,0,0,0.07407407407407407,91.62962962962962,0)"
           xlink:href="#ai"
           id="use504" />
        <use
           transform="matrix(0.07407407407407407,0,0,0.07407407407407407,106.44444444444443,0)"
           xlink:href="#an"
           id="use506" />
        <use
           transform="matrix(0.07407407407407407,0,0,0.07407407407407407,121.25925925925924,0)"
           xlink:href="#aw"
           id="use508" />
        <use
           transform="matrix(0.07407407407407407,0,0,0.07407407407407407,134.59259259259258,0)"
           xlink:href="#aj"
           id="use510" />
      </g>
      <path
         fill="#3d4752"
         d="M240 0l2-218c-23 76-54 145-80 218h-23L58-218 59 0H30v-248h44l77 211c21-75 51-140 76-211h43V0h-30"
         id="aD" />
      <g
         id="v">
        <use
           transform="matrix(0.07407407407407407,0,0,0.07407407407407407,0,0)"
           xlink:href="#aD"
           id="use514" />
        <use
           transform="matrix(0.07407407407407407,0,0,0.07407407407407407,22.148148148148145,0)"
           xlink:href="#ae"
           id="use516" />
        <use
           transform="matrix(0.07407407407407407,0,0,0.07407407407407407,36.96296296296296,0)"
           xlink:href="#al"
           id="use518" />
        <use
           transform="matrix(0.07407407407407407,0,0,0.07407407407407407,42.81481481481481,0)"
           xlink:href="#af"
           id="use520" />
        <use
           transform="matrix(0.07407407407407407,0,0,0.07407407407407407,50.222222222222214,0)"
           xlink:href="#am"
           id="use522" />
        <use
           transform="matrix(0.07407407407407407,0,0,0.07407407407407407,56.07407407407406,0)"
           xlink:href="#at"
           id="use524" />
        <use
           transform="matrix(0.07407407407407407,0,0,0.07407407407407407,70.88888888888887,0)"
           xlink:href="#al"
           id="use526" />
        <use
           transform="matrix(0.07407407407407407,0,0,0.07407407407407407,76.74074074074072,0)"
           xlink:href="#aj"
           id="use528" />
      </g>
      <g
         id="w">
        <use
           transform="matrix(0.07407407407407407,0,0,0.07407407407407407,0,0)"
           xlink:href="#as"
           id="use531" />
        <use
           transform="matrix(0.07407407407407407,0,0,0.07407407407407407,13.333333333333332,0)"
           xlink:href="#ag"
           id="use533" />
        <use
           transform="matrix(0.07407407407407407,0,0,0.07407407407407407,28.148148148148145,0)"
           xlink:href="#al"
           id="use535" />
        <use
           transform="matrix(0.07407407407407407,0,0,0.07407407407407407,34,0)"
           xlink:href="#ar"
           id="use537" />
        <use
           transform="matrix(0.07407407407407407,0,0,0.07407407407407407,47.33333333333333,0)"
           xlink:href="#aj"
           id="use539" />
        <use
           transform="matrix(0.07407407407407407,0,0,0.07407407407407407,62.14814814814814,0)"
           xlink:href="#aq"
           id="use541" />
      </g>
      <path
         fill="#3d4752"
         d="M115-194c53 0 69 39 70 98 0 66-23 100-70 100C84 3 66-7 56-30L54 0H23l1-261h32v101c10-23 28-34 59-34zm-8 174c40 0 45-34 45-75 0-40-5-75-45-74-42 0-51 32-51 76 0 43 10 73 51 73"
         id="aE" />
      <path
         fill="#3d4752"
         d="M143 0L79-87 56-68V0H24v-261h32v163l83-92h37l-77 82L181 0h-38"
         id="aF" />
      <g
         id="x">
        <use
           transform="matrix(0.07407407407407407,0,0,0.07407407407407407,0,0)"
           xlink:href="#aE"
           id="use546" />
        <use
           transform="matrix(0.07407407407407407,0,0,0.07407407407407407,14.814814814814813,0)"
           xlink:href="#ai"
           id="use548" />
        <use
           transform="matrix(0.07407407407407407,0,0,0.07407407407407407,29.629629629629626,0)"
           xlink:href="#aw"
           id="use550" />
        <use
           transform="matrix(0.07407407407407407,0,0,0.07407407407407407,42.96296296296296,0)"
           xlink:href="#aF"
           id="use552" />
        <use
           transform="matrix(0.07407407407407407,0,0,0.07407407407407407,56.29629629629629,0)"
           xlink:href="#aj"
           id="use554" />
        <use
           transform="matrix(0.07407407407407407,0,0,0.07407407407407407,71.1111111111111,0)"
           xlink:href="#an"
           id="use556" />
        <use
           transform="matrix(0.07407407407407407,0,0,0.07407407407407407,85.92592592592591,0)"
           xlink:href="#ak"
           id="use558" />
        <use
           transform="matrix(0.07407407407407407,0,0,0.07407407407407407,100.74074074074072,0)"
           xlink:href="#as"
           id="use560" />
      </g>
      <filter
         id="n"
         filterUnits="objectBoundingBox"
         x="-.03"
         y="-.02"
         width="1.06"
         height="1.1">
        <feOffset
           result="offOut"
           in="SourceAlpha"
           dy="6"
           id="feOffset563" />
        <feGaussianBlur
           result="blurOut"
           in="offOut"
           stdDeviation="5"
           id="feGaussianBlur565" />
        <feColorMatrix
           result="colorOut"
           in="blurOut"
           values="0 0 0 0 0 0 0 0 0 0 0 0 0 0 0 0 0 0 0.16862745098039217 0"
           id="feColorMatrix567" />
        <feBlend
           in="SourceGraphic"
           in2="colorOut"
           id="feBlend569" />
      </filter>
      <g
         id="z">
        <use
           transform="matrix(0.07407407407407408,0,0,0.07407407407407408,0,0)"
           xlink:href="#aD"
           id="use572" />
        <use
           transform="matrix(0.07407407407407408,0,0,0.07407407407407408,22.148148148148152,0)"
           xlink:href="#ag"
           id="use574" />
        <use
           transform="matrix(0.07407407407407408,0,0,0.07407407407407408,36.96296296296297,0)"
           xlink:href="#ak"
           id="use576" />
        <use
           transform="matrix(0.07407407407407408,0,0,0.07407407407407408,51.777777777777786,0)"
           xlink:href="#aj"
           id="use578" />
        <use
           transform="matrix(0.07407407407407408,0,0,0.07407407407407408,66.59259259259261,0)"
           xlink:href="#al"
           id="use580" />
      </g>
      <g
         id="A">
        <use
           transform="matrix(0.07407407407407408,0,0,0.07407407407407408,0,0)"
           xlink:href="#am"
           id="use583" />
        <use
           transform="matrix(0.07407407407407408,0,0,0.07407407407407408,5.851851851851853,0)"
           xlink:href="#an"
           id="use585" />
      </g>
      <g
         id="B">
        <use
           transform="matrix(0.07407407407407408,0,0,0.07407407407407408,0,0)"
           xlink:href="#ac"
           id="use588" />
        <use
           transform="matrix(0.06172839506172839,0,0,0.06172839506172839,17.77777777777778,0)"
           xlink:href="#ay"
           id="use590" />
        <use
           transform="matrix(0.06172839506172839,0,0,0.06172839506172839,32.592592592592595,0)"
           xlink:href="#ay"
           id="use592" />
        <use
           transform="matrix(0.06172839506172839,0,0,0.06172839506172839,47.407407407407405,0)"
           xlink:href="#ac"
           id="use594" />
        <use
           transform="matrix(0.06172839506172839,0,0,0.06172839506172839,62.222222222222214,0)"
           xlink:href="#Y"
           id="use596" />
        <use
           transform="matrix(0.06172839506172839,0,0,0.06172839506172839,78.20987654320987,0)"
           xlink:href="#W"
           id="use598" />
        <use
           transform="matrix(0.06172839506172839,0,0,0.06172839506172839,94.19753086419753,0)"
           xlink:href="#ac"
           id="use600" />
      </g>
      <g
         id="C">
        <use
           transform="matrix(0.07407407407407408,0,0,0.07407407407407408,0,0)"
           xlink:href="#al"
           id="use603" />
        <use
           transform="matrix(0.07407407407407408,0,0,0.07407407407407408,5.851851851851853,0)"
           xlink:href="#ai"
           id="use605" />
        <use
           transform="matrix(0.07407407407407408,0,0,0.07407407407407408,20.666666666666668,0)"
           xlink:href="#an"
           id="use607" />
        <use
           transform="matrix(0.07407407407407408,0,0,0.07407407407407408,35.48148148148149,0)"
           xlink:href="#ao"
           id="use609" />
        <use
           transform="matrix(0.07407407407407408,0,0,0.07407407407407408,50.296296296296305,0)"
           xlink:href="#ae"
           id="use611" />
        <use
           transform="matrix(0.07407407407407408,0,0,0.07407407407407408,65.11111111111111,0)"
           xlink:href="#ai"
           id="use613" />
        <use
           transform="matrix(0.07407407407407408,0,0,0.07407407407407408,79.92592592592592,0)"
           xlink:href="#ao"
           id="use615" />
        <use
           transform="matrix(0.07407407407407408,0,0,0.07407407407407408,94.74074074074073,0)"
           xlink:href="#aj"
           id="use617" />
      </g>
      <filter
         id="y"
         filterUnits="objectBoundingBox"
         x="-.04"
         y="-.03"
         width="1.08"
         height="1.13">
        <feOffset
           result="offOut"
           in="SourceAlpha"
           dy="6"
           id="feOffset620" />
        <feGaussianBlur
           result="blurOut"
           in="offOut"
           stdDeviation="5"
           id="feGaussianBlur622" />
        <feColorMatrix
           result="colorOut"
           in="blurOut"
           values="0 0 0 0 0 0 0 0 0 0 0 0 0 0 0 0 0 0 0.16862745098039217 0"
           id="feColorMatrix624" />
        <feBlend
           in="SourceGraphic"
           in2="colorOut"
           id="feBlend626" />
      </filter>
      <g
         id="E">
        <use
           transform="matrix(0.07407407407407408,0,0,0.07407407407407408,0,0)"
           xlink:href="#aD"
           id="use629" />
        <use
           transform="matrix(0.07407407407407408,0,0,0.07407407407407408,22.148148148148152,0)"
           xlink:href="#ae"
           id="use631" />
        <use
           transform="matrix(0.07407407407407408,0,0,0.07407407407407408,36.96296296296297,0)"
           xlink:href="#al"
           id="use633" />
        <use
           transform="matrix(0.07407407407407408,0,0,0.07407407407407408,42.814814814814824,0)"
           xlink:href="#af"
           id="use635" />
        <use
           transform="matrix(0.07407407407407408,0,0,0.07407407407407408,50.22222222222223,0)"
           xlink:href="#am"
           id="use637" />
        <use
           transform="matrix(0.07407407407407408,0,0,0.07407407407407408,56.07407407407408,0)"
           xlink:href="#at"
           id="use639" />
        <use
           transform="matrix(0.07407407407407408,0,0,0.07407407407407408,70.8888888888889,0)"
           xlink:href="#al"
           id="use641" />
        <use
           transform="matrix(0.07407407407407408,0,0,0.07407407407407408,76.74074074074075,0)"
           xlink:href="#aj"
           id="use643" />
      </g>
      <g
         id="F">
        <use
           transform="matrix(0.07407407407407408,0,0,0.07407407407407408,0,0)"
           xlink:href="#ah"
           id="use646" />
        <use
           transform="matrix(0.07407407407407408,0,0,0.07407407407407408,22.148148148148152,0)"
           xlink:href="#ag"
           id="use648" />
        <use
           transform="matrix(0.07407407407407408,0,0,0.07407407407407408,36.96296296296297,0)"
           xlink:href="#ak"
           id="use650" />
        <use
           transform="matrix(0.07407407407407408,0,0,0.07407407407407408,51.777777777777786,0)"
           xlink:href="#aj"
           id="use652" />
        <use
           transform="matrix(0.07407407407407408,0,0,0.07407407407407408,66.59259259259261,0)"
           xlink:href="#al"
           id="use654" />
        <use
           transform="matrix(0.07407407407407408,0,0,0.07407407407407408,72.44444444444446,0)"
           xlink:href="#as"
           id="use656" />
      </g>
      <g
         id="G">
        <use
           transform="matrix(0.07407407407407408,0,0,0.07407407407407408,0,0)"
           xlink:href="#am"
           id="use659" />
        <use
           transform="matrix(0.07407407407407408,0,0,0.07407407407407408,5.851851851851853,0)"
           xlink:href="#an"
           id="use661" />
      </g>
      <g
         id="H">
        <use
           transform="matrix(0.07407407407407408,0,0,0.07407407407407408,0,0)"
           xlink:href="#ac"
           id="use664" />
        <use
           transform="matrix(0.06172839506172839,0,0,0.06172839506172839,17.77777777777778,0)"
           xlink:href="#ay"
           id="use666" />
        <use
           transform="matrix(0.06172839506172839,0,0,0.06172839506172839,32.592592592592595,0)"
           xlink:href="#ay"
           id="use668" />
        <use
           transform="matrix(0.06172839506172839,0,0,0.06172839506172839,47.407407407407405,0)"
           xlink:href="#ac"
           id="use670" />
        <use
           transform="matrix(0.06172839506172839,0,0,0.06172839506172839,62.222222222222214,0)"
           xlink:href="#Y"
           id="use672" />
        <use
           transform="matrix(0.06172839506172839,0,0,0.06172839506172839,78.20987654320987,0)"
           xlink:href="#W"
           id="use674" />
        <use
           transform="matrix(0.06172839506172839,0,0,0.06172839506172839,94.19753086419753,0)"
           xlink:href="#ac"
           id="use676" />
      </g>
      <g
         id="I">
        <use
           transform="matrix(0.07407407407407408,0,0,0.07407407407407408,0,0)"
           xlink:href="#ap"
           id="use679" />
        <use
           transform="matrix(0.06172839506172839,0,0,0.06172839506172839,17.77777777777778,0)"
           xlink:href="#ab"
           id="use681" />
        <use
           transform="matrix(0.06172839506172839,0,0,0.06172839506172839,33.76543209876543,0)"
           xlink:href="#aA"
           id="use683" />
        <use
           transform="matrix(0.06172839506172839,0,0,0.06172839506172839,39.93827160493827,0)"
           xlink:href="#aD"
           id="use685" />
        <use
           transform="matrix(0.06172839506172839,0,0,0.06172839506172839,58.39506172839506,0)"
           xlink:href="#ac"
           id="use687" />
      </g>
      <filter
         id="D"
         filterUnits="objectBoundingBox"
         x="-.04"
         y="-.02"
         width="1.08"
         height="1.11">
        <feOffset
           result="offOut"
           in="SourceAlpha"
           dy="6"
           id="feOffset690" />
        <feGaussianBlur
           result="blurOut"
           in="offOut"
           stdDeviation="5"
           id="feGaussianBlur692" />
        <feColorMatrix
           result="colorOut"
           in="blurOut"
           values="0 0 0 0 0 0 0 0 0 0 0 0 0 0 0 0 0 0 0.16862745098039217 0"
           id="feColorMatrix694" />
        <feBlend
           in="SourceGraphic"
           in2="colorOut"
           id="feBlend696" />
      </filter>
      <path
         fill="#3d4752"
         d="M127-220V0H93v-220H8v-28h204v28h-85"
         id="aG" />
      <g
         id="K">
        <use
           transform="matrix(0.07407407407407408,0,0,0.07407407407407408,0,0)"
           xlink:href="#ay"
           id="use700" />
        <use
           transform="matrix(0.07407407407407408,0,0,0.07407407407407408,17.77777777777778,0)"
           xlink:href="#ad"
           id="use702" />
        <use
           transform="matrix(0.07407407407407408,0,0,0.07407407407407408,33.55555555555556,0)"
           xlink:href="#aG"
           id="use704" />
      </g>
      <path
         fill="#3d4752"
         d="M141 0L90-78 38 0H4l68-98-65-92h35l48 74 47-74h35l-64 92 68 98h-35"
         id="aH" />
      <g
         id="L">
        <use
           transform="matrix(0.07407407407407408,0,0,0.07407407407407408,0,0)"
           xlink:href="#aD"
           id="use708" />
        <use
           transform="matrix(0.07407407407407408,0,0,0.07407407407407408,22.148148148148152,0)"
           xlink:href="#ai"
           id="use710" />
        <use
           transform="matrix(0.07407407407407408,0,0,0.07407407407407408,36.96296296296297,0)"
           xlink:href="#aH"
           id="use712" />
        <use
           transform="matrix(0.07407407407407408,0,0,0.07407407407407408,50.296296296296305,0)"
           xlink:href="#ay"
           id="use714" />
        <use
           transform="matrix(0.07407407407407408,0,0,0.07407407407407408,68.07407407407408,0)"
           xlink:href="#ad"
           id="use716" />
        <use
           transform="matrix(0.07407407407407408,0,0,0.07407407407407408,83.85185185185185,0)"
           xlink:href="#aG"
           id="use718" />
      </g>
      <g
         id="M">
        <use
           transform="matrix(0.07407407407407408,0,0,0.07407407407407408,0,0)"
           xlink:href="#ay"
           id="use721" />
        <use
           transform="matrix(0.07407407407407408,0,0,0.07407407407407408,17.77777777777778,0)"
           xlink:href="#aD"
           id="use723" />
        <use
           transform="matrix(0.07407407407407408,0,0,0.07407407407407408,39.92592592592593,0)"
           xlink:href="#aG"
           id="use725" />
      </g>
      <filter
         id="J"
         filterUnits="objectBoundingBox"
         x="-.08"
         y="-.03"
         width="1.17"
         height="1.14">
        <feOffset
           result="offOut"
           in="SourceAlpha"
           dy="6"
           id="feOffset728" />
        <feGaussianBlur
           result="blurOut"
           in="offOut"
           stdDeviation="5"
           id="feGaussianBlur730" />
        <feColorMatrix
           result="colorOut"
           in="blurOut"
           values="0 0 0 0 0 0 0 0 0 0 0 0 0 0 0 0 0 0 0.16862745098039217 0"
           id="feColorMatrix732" />
        <feBlend
           in="SourceGraphic"
           in2="colorOut"
           id="feBlend734" />
      </filter>
      <g
         id="O">
        <use
           transform="matrix(0.07407407407407407,0,0,0.07407407407407407,0,0)"
           xlink:href="#aD"
           id="use737" />
        <use
           transform="matrix(0.061728395061728385,0,0,0.061728395061728385,22.148148148148145,0)"
           xlink:href="#aA"
           id="use739" />
        <use
           transform="matrix(0.061728395061728385,0,0,0.061728395061728385,28.320987654320984,0)"
           xlink:href="#Y"
           id="use741" />
        <use
           transform="matrix(0.061728395061728385,0,0,0.061728395061728385,44.30864197530863,0)"
           xlink:href="#aA"
           id="use743" />
        <use
           transform="matrix(0.061728395061728385,0,0,0.061728395061728385,50.48148148148147,0)"
           xlink:href="#X"
           id="use745" />
        <use
           transform="matrix(0.061728395061728385,0,0,0.061728395061728385,67.76543209876542,0)"
           xlink:href="#Y"
           id="use747" />
      </g>
      <g
         id="P">
        <use
           transform="matrix(0.07407407407407407,0,0,0.07407407407407407,0,0)"
           xlink:href="#W"
           id="use750" />
        <use
           transform="matrix(0.07407407407407407,0,0,0.07407407407407407,19.185185185185183,0)"
           xlink:href="#ap"
           id="use752" />
      </g>
      <g
         id="Q">
        <use
           transform="matrix(0.07407407407407407,0,0,0.07407407407407407,0,0)"
           xlink:href="#ay"
           id="use755" />
        <use
           transform="matrix(0.07407407407407407,0,0,0.07407407407407407,17.77777777777778,0)"
           xlink:href="#ag"
           id="use757" />
        <use
           transform="matrix(0.07407407407407407,0,0,0.07407407407407407,32.592592592592595,0)"
           xlink:href="#al"
           id="use759" />
        <use
           transform="matrix(0.07407407407407407,0,0,0.07407407407407407,38.44444444444444,0)"
           xlink:href="#ar"
           id="use761" />
        <use
           transform="matrix(0.07407407407407407,0,0,0.07407407407407407,51.77777777777777,0)"
           xlink:href="#aj"
           id="use763" />
        <use
           transform="matrix(0.07407407407407407,0,0,0.07407407407407407,66.59259259259258,0)"
           xlink:href="#aq"
           id="use765" />
      </g>
      <g
         id="R">
        <use
           transform="matrix(0.07407407407407407,0,0,0.07407407407407407,0,0)"
           xlink:href="#ap"
           id="use768" />
        <use
           transform="matrix(0.07407407407407407,0,0,0.07407407407407407,17.77777777777778,0)"
           xlink:href="#aq"
           id="use770" />
        <use
           transform="matrix(0.07407407407407407,0,0,0.07407407407407407,26.592592592592595,0)"
           xlink:href="#aj"
           id="use772" />
        <use
           transform="matrix(0.07407407407407407,0,0,0.07407407407407407,41.407407407407405,0)"
           xlink:href="#at"
           id="use774" />
        <use
           transform="matrix(0.07407407407407407,0,0,0.07407407407407407,56.22222222222221,0)"
           xlink:href="#aq"
           id="use776" />
        <use
           transform="matrix(0.07407407407407407,0,0,0.07407407407407407,65.03703703703702,0)"
           xlink:href="#ag"
           id="use778" />
        <use
           transform="matrix(0.07407407407407407,0,0,0.07407407407407407,79.85185185185183,0)"
           xlink:href="#aw"
           id="use780" />
        <use
           transform="matrix(0.07407407407407407,0,0,0.07407407407407407,93.18518518518516,0)"
           xlink:href="#aj"
           id="use782" />
        <use
           transform="matrix(0.07407407407407407,0,0,0.07407407407407407,107.99999999999997,0)"
           xlink:href="#as"
           id="use784" />
        <use
           transform="matrix(0.07407407407407407,0,0,0.07407407407407407,121.33333333333329,0)"
           xlink:href="#as"
           id="use786" />
        <use
           transform="matrix(0.07407407407407407,0,0,0.07407407407407407,134.66666666666663,0)"
           xlink:href="#am"
           id="use788" />
        <use
           transform="matrix(0.07407407407407407,0,0,0.07407407407407407,140.51851851851848,0)"
           xlink:href="#an"
           id="use790" />
        <use
           transform="matrix(0.07407407407407407,0,0,0.07407407407407407,155.3333333333333,0)"
           xlink:href="#ao"
           id="use792" />
      </g>
      <filter
         id="N"
         filterUnits="objectBoundingBox"
         x="-.05"
         y="-.02"
         width="1.09"
         height="1.1">
        <feOffset
           result="offOut"
           in="SourceAlpha"
           dy="6"
           id="feOffset795" />
        <feGaussianBlur
           result="blurOut"
           in="offOut"
           stdDeviation="5"
           id="feGaussianBlur797" />
        <feColorMatrix
           result="colorOut"
           in="blurOut"
           values="0 0 0 0 0 0 0 0 0 0 0 0 0 0 0 0 0 0 0.16862745098039217 0"
           id="feColorMatrix799" />
        <feBlend
           in="SourceGraphic"
           in2="colorOut"
           id="feBlend801" />
      </filter>
      <g
         id="T">
        <use
           transform="matrix(0.07407407407407408,0,0,0.07407407407407408,0,0)"
           xlink:href="#W"
           id="use804" />
        <use
           transform="matrix(0.07407407407407408,0,0,0.07407407407407408,19.185185185185187,0)"
           xlink:href="#ap"
           id="use806" />
      </g>
      <filter
         id="S"
         filterUnits="objectBoundingBox"
         x="-.1"
         y="-.03"
         width="1.2"
         height="1.14">
        <feOffset
           result="offOut"
           in="SourceAlpha"
           dy="6"
           id="feOffset809" />
        <feGaussianBlur
           result="blurOut"
           in="offOut"
           stdDeviation="5"
           id="feGaussianBlur811" />
        <feColorMatrix
           result="colorOut"
           in="blurOut"
           values="0 0 0 0 0 0 0 0 0 0 0 0 0 0 0 0 0 0 0.16862745098039217 0"
           id="feColorMatrix813" />
        <feBlend
           in="SourceGraphic"
           in2="colorOut"
           id="feBlend815" />
      </filter>
      <g
         id="V">
        <use
           transform="matrix(0.07407407407407408,0,0,0.07407407407407408,0,0)"
           xlink:href="#aD"
           id="use818" />
        <use
           transform="matrix(0.07407407407407408,0,0,0.07407407407407408,22.148148148148152,0)"
           xlink:href="#aA"
           id="use820" />
        <use
           transform="matrix(0.07407407407407408,0,0,0.07407407407407408,29.55555555555556,0)"
           xlink:href="#ap"
           id="use822" />
      </g>
      <filter
         id="U"
         filterUnits="objectBoundingBox"
         x="-.1"
         y="-.03"
         width="1.2"
         height="1.14">
        <feOffset
           result="offOut"
           in="SourceAlpha"
           dy="6"
           id="feOffset825" />
        <feGaussianBlur
           result="blurOut"
           in="offOut"
           stdDeviation="5"
           id="feGaussianBlur827" />
        <feColorMatrix
           result="colorOut"
           in="blurOut"
           values="0 0 0 0 0 0 0 0 0 0 0 0 0 0 0 0 0 0 0.16862745098039217 0"
           id="feColorMatrix829" />
        <feBlend
           in="SourceGraphic"
           in2="colorOut"
           id="feBlend831" />
      </filter>
    </defs>
  </defs>
  <a
     id="a1302"
     target="conjure">
    <g
       filter="url(#a)"
       id="g36"
       transform="translate(-59,-99)">
      <path
         d="m 80,348 c 0,-4.42 3.58,-8 8,-8 h 344 c 4.42,0 8,3.58 8,8 v 182 c 0,4.42 -3.58,8 -8,8 H 88 c -4.42,0 -8,-3.58 -8,-8 z"
         stroke="#3d4752"
         stroke-width="4"
         fill="#99d2f2"
         id="path10" />
      <use
         xlink:href="#b"
         transform="translate(204.82099,376.33333)"
         id="use12"
         x="0"
         y="0"
         width="100%"
         height="100%" />
      <use
         xlink:href="#c"
         transform="translate(109.85185,411.53333)"
         id="use14"
         x="0"
         y="0"
         width="100%"
         height="100%" />
      <use
         xlink:href="#d"
         transform="translate(246.07407,411.53333)"
         id="use16"
         x="0"
         y="0"
         width="100%"
         height="100%" />
      <use
         xlink:href="#e"
         transform="translate(367.25926,411.53333)"
         id="use18"
         x="0"
         y="0"
         width="100%"
         height="100%" />
      <use
         xlink:href="#f"
         transform="translate(97.333333,446.73333)"
         id="use20"
         x="0"
         y="0"
         width="100%"
         height="100%" />
      <use
         xlink:href="#g"
         transform="translate(208.2963,446.73333)"
         id="use22"
         x="0"
         y="0"
         width="100%"
         height="100%" />
      <use
         xlink:href="#h"
         transform="translate(307.25926,446.73333)"
         id="use24"
         x="0"
         y="0"
         width="100%"
         height="100%" />
      <use
         xlink:href="#i"
         transform="translate(400.44444,446.73333)"
         id="use26"
         x="0"
         y="0"
         width="100%"
         height="100%" />
      <use
         xlink:href="#j"
         transform="translate(111.25926,481.93333)"
         id="use28"
         x="0"
         y="0"
         width="100%"
         height="100%" />
      <use
         xlink:href="#k"
         transform="translate(174.96296,481.93333)"
         id="use30"
         x="0"
         y="0"
         width="100%"
         height="100%" />
      <use
         xlink:href="#l"
         transform="translate(294.74074,481.93333)"
         id="use32"
         x="0"
         y="0"
         width="100%"
         height="100%" />
      <use
         xlink:href="#m"
         transform="translate(198.62963,517.13333)"
         id="use34"
         x="0"
         y="0"
         width="100%"
         height="100%" />
    </g>
  </a>
  <path
     d="m 201,443 v 31.26"
     stroke="#3d4752"
     stroke-width="4"
     fill="none"
     id="path38" />
  <path
     d="m 203,443.05 h -4 V 441 h 4 z"
     fill="#3d4752"
     id="path40" />
  <path
     d="m 201,490.53 -4.64,-14.27 h 9.28 z"
     stroke="#3d4752"
     stroke-width="4"
     fill="#3d4752"
     id="path42" />
  <a
     id="a1318"
     target="savilerow">
    <g
       filter="url(#n)"
       id="g66"
       transform="translate(-59,-99)">
      <path
         d="m 80,846 c 0,-4.42 3.58,-8 8,-8 h 344 c 4.42,0 8,3.58 8,8 v 186 c 0,4.42 -3.58,8 -8,8 H 88 c -4.42,0 -8,-3.58 -8,-8 z"
         stroke="#3d4752"
         stroke-width="4"
         fill="#99d2f2"
         id="path44" />
      <use
         xlink:href="#o"
         transform="translate(188.67901,891.53333)"
         id="use46"
         x="0"
         y="0"
         width="100%"
         height="100%" />
      <use
         xlink:href="#p"
         transform="translate(273.92593,891.53333)"
         id="use48"
         x="0"
         y="0"
         width="100%"
         height="100%" />
      <use
         xlink:href="#q"
         transform="translate(104.74074,926.73333)"
         id="use50"
         x="0"
         y="0"
         width="100%"
         height="100%" />
      <use
         xlink:href="#r"
         transform="translate(291.03704,926.73333)"
         id="use52"
         x="0"
         y="0"
         width="100%"
         height="100%" />
      <use
         xlink:href="#s"
         transform="translate(320.66667,926.73333)"
         id="use54"
         x="0"
         y="0"
         width="100%"
         height="100%" />
      <use
         xlink:href="#t"
         transform="translate(145.37037,961.93333)"
         id="use56"
         x="0"
         y="0"
         width="100%"
         height="100%" />
      <use
         xlink:href="#u"
         transform="translate(225.22222,961.93333)"
         id="use58"
         x="0"
         y="0"
         width="100%"
         height="100%" />
      <use
         xlink:href="#v"
         transform="translate(114.2963,997.13333)"
         id="use60"
         x="0"
         y="0"
         width="100%"
         height="100%" />
      <use
         xlink:href="#w"
         transform="translate(213.25926,997.13333)"
         id="use62"
         x="0"
         y="0"
         width="100%"
         height="100%" />
      <use
         xlink:href="#x"
         transform="translate(291.62963,997.13333)"
         id="use64"
         x="0"
         y="0"
         width="100%"
         height="100%" />
    </g>
  </a>
  <g
     filter="url(#y)"
     id="g78"
     transform="translate(-59,-99)">
    <path
       d="m 140,120 h 240 v 160 c -40.08,-26.72 -65.04,-26.72 -80.16,-26.72 -24,0 -55.92,26.72 -79.92,26.72 -14.88,0 -40.08,0 -79.92,-26.72 z"
       stroke="#3d4752"
       stroke-width="4"
       fill="#ffffff"
       id="path68" />
    <use
       xlink:href="#z"
       transform="translate(209.74074,174.73333)"
       id="use70"
       x="0"
       y="0"
       width="100%"
       height="100%" />
    <use
       xlink:href="#A"
       transform="translate(289.59259,174.73333)"
       id="use72"
       x="0"
       y="0"
       width="100%"
       height="100%" />
    <use
       xlink:href="#B"
       transform="translate(147.01235,209.93333)"
       id="use74"
       x="0"
       y="0"
       width="100%"
       height="100%" />
    <use
       xlink:href="#C"
       transform="translate(263.4321,209.93333)"
       id="use76"
       x="0"
       y="0"
       width="100%"
       height="100%" />
  </g>
  <path
     d="m 201,171.67 v 44.6"
     stroke="#3d4752"
     stroke-width="4"
     fill="none"
     id="path80" />
  <path
     d="m 203,171.72 h -4 v -1.14 l 4,-1.82 z"
     fill="#3d4752"
     id="path82" />
  <path
     d="m 201,232.53 -4.64,-14.27 h 9.28 z"
     stroke="#3d4752"
     stroke-width="4"
     fill="#3d4752"
     id="path84" />
  <g
     filter="url(#D)"
     id="g102"
     transform="translate(-59,-99)">
    <path
       d="m 140,598 h 216 v 153 c -36.07,-25.55 -58.54,-25.55 -72.14,-25.55 -21.6,0 -50.33,25.55 -71.93,25.55 -13.4,0 -36.07,0 -71.93,-25.55 z"
       stroke="#3d4752"
       stroke-width="4"
       fill="#ffffff"
       id="path86" />
    <path
       d="m 152,611.5 h 216 v 153 c -36.07,-25.55 -58.54,-25.55 -72.14,-25.55 -21.6,0 -50.33,25.55 -71.93,25.55 -13.4,0 -36.07,0 -71.93,-25.55 z"
       stroke="#3d4752"
       stroke-width="4"
       fill="#ffffff"
       id="path88" />
    <path
       d="m 164,625 h 216 v 153 c -36.07,-25.55 -58.54,-25.55 -72.14,-25.55 -21.6,0 -50.33,25.55 -71.93,25.55 -13.4,0 -36.07,0 -71.93,-25.55 z"
       stroke="#3d4752"
       stroke-width="4"
       fill="#ffffff"
       id="path90" />
    <use
       xlink:href="#E"
       transform="translate(179.62963,659.13333)"
       id="use92"
       x="0"
       y="0"
       width="100%"
       height="100%" />
    <use
       xlink:href="#F"
       transform="translate(278.59259,659.13333)"
       id="use94"
       x="0"
       y="0"
       width="100%"
       height="100%" />
    <use
       xlink:href="#G"
       transform="translate(203.45679,694.33333)"
       id="use96"
       x="0"
       y="0"
       width="100%"
       height="100%" />
    <use
       xlink:href="#H"
       transform="translate(231.53086,694.33333)"
       id="use98"
       x="0"
       y="0"
       width="100%"
       height="100%" />
    <use
       xlink:href="#I"
       transform="translate(235.39506,729.53333)"
       id="use100"
       x="0"
       y="0"
       width="100%"
       height="100%" />
  </g>
  <path
     d="m 201,675.82 v 38.44"
     stroke="#3d4752"
     stroke-width="4"
     fill="none"
     id="path104" />
  <path
     d="m 203,675.87 h -4 v -1.1 l 4,-1.9 z"
     fill="#3d4752"
     id="path106" />
  <path
     d="m 201,730.53 -4.64,-14.27 h 9.28 z"
     stroke="#3d4752"
     stroke-width="4"
     fill="#3d4752"
     id="path108" />
  <g
     filter="url(#J)"
     id="g118"
     transform="translate(-59,-99)">
    <path
       d="m 80,1168 c 0,-4.42 3.58,-8 8,-8 h 104 c 4.42,0 8,3.58 8,8 v 124 c 0,4.42 -3.58,8 -8,8 H 88 c -4.42,0 -8,-3.58 -8,-8 z"
       stroke="#3d4752"
       stroke-width="4"
       fill="#ffffff"
       id="path110" />
    <use
       xlink:href="#K"
       transform="translate(115.11111,1200.1333)"
       id="use112"
       x="0"
       y="0"
       width="100%"
       height="100%" />
    <use
       xlink:href="#L"
       transform="translate(89.962963,1235.3333)"
       id="use114"
       x="0"
       y="0"
       width="100%"
       height="100%" />
    <use
       xlink:href="#M"
       transform="translate(111.92593,1270.5333)"
       id="use116"
       x="0"
       y="0"
       width="100%"
       height="100%" />
  </g>
  <a
     id="a1332"
     target="minion">
    <g
       filter="url(#N)"
       id="g130"
       transform="translate(-59,-99)">
      <path
         d="m 480,848 c 0,-4.42 3.58,-8 8,-8 h 204 c 4.42,0 8,3.58 8,8 v 184 c 0,4.42 -3.58,8 -8,8 H 488 c -4.42,0 -8,-3.58 -8,-8 z"
         stroke="#3d4752"
         stroke-width="4"
         fill="#99d2f2"
         id="path120" />
      <use
         xlink:href="#O"
         transform="translate(548.12346,910.13333)"
         id="use122"
         x="0"
         y="0"
         width="100%"
         height="100%" />
      <use
         xlink:href="#P"
         transform="translate(530.37037,945.33333)"
         id="use124"
         x="0"
         y="0"
         width="100%"
         height="100%" />
      <use
         xlink:href="#Q"
         transform="translate(574.22222,945.33333)"
         id="use126"
         x="0"
         y="0"
         width="100%"
         height="100%" />
      <use
         xlink:href="#R"
         transform="translate(504.92593,980.53333)"
         id="use128"
         x="0"
         y="0"
         width="100%"
         height="100%" />
    </g>
  </a>
  <path
     d="m 345.97,945 v 46 H 531 v -25.26"
     stroke="#3d4752"
     stroke-width="4"
     fill="none"
     id="path132" />
  <path
     d="m 347.97,945.05 h -4 V 943 h 4 z"
     fill="#3d4752"
     id="path134" />
  <path
     d="m 531,949.47 4.64,14.27 h -9.28 z"
     stroke="#3d4752"
     stroke-width="4"
     fill="#3d4752"
     id="path136" />
  <path
     d="M 531,737 V 697 H 351.78 v 17.26"
     stroke="#3d4752"
     stroke-width="4"
     fill="none"
     id="path138" />
  <path
     d="m 533,739 h -4 v -2.05 h 4 z"
     fill="#3d4752"
     id="path140" />
  <path
     d="m 351.78,730.53 -4.63,-14.27 h 9.27 z"
     stroke="#3d4752"
     stroke-width="4"
     fill="#3d4752"
     id="path142" />
  <g
     filter="url(#S)"
     id="g148"
     transform="translate(-59,-99)">
    <path
       d="m 210,1168 c 0,-4.42 3.58,-8 8,-8 h 84 c 4.42,0 8,3.58 8,8 v 124 c 0,4.42 -3.58,8 -8,8 h -84 c -4.42,0 -8,-3.58 -8,-8 z"
       stroke="#3d4752"
       stroke-width="4"
       fill="#ffffff"
       id="path144" />
    <use
       xlink:href="#T"
       transform="translate(241.51852,1235.3333)"
       id="use146"
       x="0"
       y="0"
       width="100%"
       height="100%" />
  </g>
  <g
     filter="url(#U)"
     id="g156"
     transform="translate(-59,-99)">
    <path
       d="m 320,1168 c 0,-4.42 3.58,-8 8,-8 h 84 c 4.42,0 8,3.58 8,8 v 124 c 0,4.42 -3.58,8 -8,8 h -84 c -4.42,0 -8,-3.58 -8,-8 z"
       fill="#ffffff"
       id="path150" />
    <path
       d="m 322,1168 c 0,1.1 -0.9,2 -2,2 -1.1,0 -2,-0.9 -2,-2 0,-1.1 0.9,-2 2,-2 1.1,0 2,0.9 2,2 z m 2.34,-5.66 c 0,1.1 -0.9,2 -2,2 -1.1,0 -2,-0.9 -2,-2 0,-1.1 0.9,-2 2,-2 1.1,0 2,0.9 2,2 z M 330,1160 c 0,1.1 -0.9,2 -2,2 -1.1,0 -2,-0.9 -2,-2 0,-1.1 0.9,-2 2,-2 1.1,0 2,0.9 2,2 z m 7.64,0 c 0,1.1 -0.9,2 -2,2 -1.1,0 -2,-0.9 -2,-2 0,-1.1 0.9,-2 2,-2 1.1,0 2,0.9 2,2 z m 7.63,0 c 0,1.1 -0.9,2 -2,2 -1.1,0 -2,-0.9 -2,-2 0,-1.1 0.9,-2 2,-2 1.1,0 2,0.9 2,2 z m 7.64,0 c 0,1.1 -0.9,2 -2,2 -1.1,0 -2,-0.9 -2,-2 0,-1.1 0.9,-2 2,-2 1.1,0 2,0.9 2,2 z m 7.65,0 c 0,1.1 -0.9,2 -2,2 -1.1,0 -2,-0.9 -2,-2 0,-1.1 0.9,-2 2,-2 1.1,0 2,0.9 2,2 z m 7.63,0 c 0,1.1 -0.9,2 -2,2 -1.1,0 -2,-0.9 -2,-2 0,-1.1 0.9,-2 2,-2 1.1,0 2,0.9 2,2 z m 7.64,0 c 0,1.1 -0.9,2 -2,2 -1.1,0 -2,-0.9 -2,-2 0,-1.1 0.9,-2 2,-2 1.1,0 2,0.9 2,2 z m 7.63,0 c 0,1.1 -0.9,2 -2,2 -1.1,0 -2,-0.9 -2,-2 0,-1.1 0.9,-2 2,-2 1.1,0 2,0.9 2,2 z m 7.64,0 c 0,1.1 -0.9,2 -2,2 -1.1,0 -2,-0.9 -2,-2 0,-1.1 0.9,-2 2,-2 1.1,0 2,0.9 2,2 z m 7.63,0 c 0,1.1 -0.9,2 -2,2 -1.1,0 -2,-0.9 -2,-2 0,-1.1 0.9,-2 2,-2 1.1,0 2,0.9 2,2 z m 7.63,0 c 0,1.1 -0.9,2 -2,2 -1.1,0 -2,-0.9 -2,-2 0,-1.1 0.9,-2 2,-2 1.1,0 2,0.9 2,2 z m 7.64,0 c 0,1.1 -0.9,2 -2,2 -1.1,0 -2,-0.9 -2,-2 0,-1.1 0.9,-2 2,-2 1.1,0 2,0.9 2,2 z m 5.66,2.34 c 0,1.1 -0.9,2 -2,2 -1.1,0 -2,-0.9 -2,-2 0,-1.1 0.9,-2 2,-2 1.1,0 2,0.9 2,2 z M 422,1168 c 0,1.1 -0.9,2 -2,2 -1.1,0 -2,-0.9 -2,-2 0,-1.1 0.9,-2 2,-2 1.1,0 2,0.9 2,2 z m 0,8.27 c 0,1.1 -0.9,2 -2,2 -1.1,0 -2,-0.9 -2,-2 0,-1.1 0.9,-2 2,-2 1.1,0 2,0.9 2,2 z m 0,8.26 c 0,1.1 -0.9,2 -2,2 -1.1,0 -2,-0.9 -2,-2 0,-1.1 0.9,-2 2,-2 1.1,0 2,0.9 2,2 z m 0,8.27 c 0,1.1 -0.9,2 -2,2 -1.1,0 -2,-0.9 -2,-2 0,-1.1 0.9,-2 2,-2 1.1,0 2,0.9 2,2 z m 0,8.27 c 0,1.1 -0.9,2 -2,2 -1.1,0 -2,-0.9 -2,-2 0,-1.1 0.9,-2 2,-2 1.1,0 2,0.9 2,2 z m 0,8.26 c 0,1.1 -0.9,2 -2,2 -1.1,0 -2,-0.9 -2,-2 0,-1.1 0.9,-2 2,-2 1.1,0 2,0.9 2,2 z m 0,8.27 c 0,1.1 -0.9,2 -2,2 -1.1,0 -2,-0.9 -2,-2 0,-1.1 0.9,-2 2,-2 1.1,0 2,0.9 2,2 z m 0,8.27 c 0,1.1 -0.9,2 -2,2 -1.1,0 -2,-0.9 -2,-2 0,-1.1 0.9,-2 2,-2 1.1,0 2,0.9 2,2 z m 0,8.26 c 0,1.1 -0.9,2 -2,2 -1.1,0 -2,-0.9 -2,-2 0,-1.1 0.9,-2 2,-2 1.1,0 2,0.9 2,2 z m 0,8.27 c 0,1.1 -0.9,2 -2,2 -1.1,0 -2,-0.9 -2,-2 0,-1.1 0.9,-2 2,-2 1.1,0 2,0.9 2,2 z m 0,8.27 c 0,1.1 -0.9,2 -2,2 -1.1,0 -2,-0.9 -2,-2 0,-1.1 0.9,-2 2,-2 1.1,0 2,0.9 2,2 z m 0,8.26 c 0,1.1 -0.9,2 -2,2 -1.1,0 -2,-0.9 -2,-2 0,-1.1 0.9,-2 2,-2 1.1,0 2,0.9 2,2 z m 0,8.27 c 0,1.1 -0.9,2 -2,2 -1.1,0 -2,-0.9 -2,-2 0,-1.1 0.9,-2 2,-2 1.1,0 2,0.9 2,2 z m 0,8.27 c 0,1.1 -0.9,2 -2,2 -1.1,0 -2,-0.9 -2,-2 0,-1.1 0.9,-2 2,-2 1.1,0 2,0.9 2,2 z m 0,8.26 c 0,1.1 -0.9,2 -2,2 -1.1,0 -2,-0.9 -2,-2 0,-1.1 0.9,-2 2,-2 1.1,0 2,0.9 2,2 z m 0,8.27 c 0,1.1 -0.9,2 -2,2 -1.1,0 -2,-0.9 -2,-2 0,-1.1 0.9,-2 2,-2 1.1,0 2,0.9 2,2 z m -2.34,5.66 c 0,1.1 -0.9,2 -2,2 -1.1,0 -2,-0.9 -2,-2 0,-1.1 0.9,-2 2,-2 1.1,0 2,0.9 2,2 z M 414,1300 c 0,1.1 -0.9,2 -2,2 -1.1,0 -2,-0.9 -2,-2 0,-1.1 0.9,-2 2,-2 1.1,0 2,0.9 2,2 z m -7.64,0 c 0,1.1 -0.9,2 -2,2 -1.1,0 -2,-0.9 -2,-2 0,-1.1 0.9,-2 2,-2 1.1,0 2,0.9 2,2 z m -7.63,0 c 0,1.1 -0.9,2 -2,2 -1.1,0 -2,-0.9 -2,-2 0,-1.1 0.9,-2 2,-2 1.1,0 2,0.9 2,2 z m -7.64,0 c 0,1.1 -0.9,2 -2,2 -1.1,0 -2,-0.9 -2,-2 0,-1.1 0.9,-2 2,-2 1.1,0 2,0.9 2,2 z m -7.65,0 c 0,1.1 -0.9,2 -2,2 -1.1,0 -2,-0.9 -2,-2 0,-1.1 0.9,-2 2,-2 1.1,0 2,0.9 2,2 z m -7.63,0 c 0,1.1 -0.9,2 -2,2 -1.1,0 -2,-0.9 -2,-2 0,-1.1 0.9,-2 2,-2 1.1,0 2,0.9 2,2 z m -7.64,0 c 0,1.1 -0.9,2 -2,2 -1.1,0 -2,-0.9 -2,-2 0,-1.1 0.9,-2 2,-2 1.1,0 2,0.9 2,2 z m -7.63,0 c 0,1.1 -0.9,2 -2,2 -1.1,0 -2,-0.9 -2,-2 0,-1.1 0.9,-2 2,-2 1.1,0 2,0.9 2,2 z m -7.64,0 c 0,1.1 -0.9,2 -2,2 -1.1,0 -2,-0.9 -2,-2 0,-1.1 0.9,-2 2,-2 1.1,0 2,0.9 2,2 z m -7.63,0 c 0,1.1 -0.9,2 -2,2 -1.1,0 -2,-0.9 -2,-2 0,-1.1 0.9,-2 2,-2 1.1,0 2,0.9 2,2 z m -7.63,0 c 0,1.1 -0.9,2 -2,2 -1.1,0 -2,-0.9 -2,-2 0,-1.1 0.9,-2 2,-2 1.1,0 2,0.9 2,2 z m -7.64,0 c 0,1.1 -0.9,2 -2,2 -1.1,0 -2,-0.9 -2,-2 0,-1.1 0.9,-2 2,-2 1.1,0 2,0.9 2,2 z m -5.66,-2.34 c 0,1.1 -0.9,2 -2,2 -1.1,0 -2,-0.9 -2,-2 0,-1.1 0.9,-2 2,-2 1.1,0 2,0.9 2,2 z M 322,1292 c 0,1.1 -0.9,2 -2,2 -1.1,0 -2,-0.9 -2,-2 0,-1.1 0.9,-2 2,-2 1.1,0 2,0.9 2,2 z m 0,-8.27 c 0,1.1 -0.9,2 -2,2 -1.1,0 -2,-0.9 -2,-2 0,-1.1 0.9,-2 2,-2 1.1,0 2,0.9 2,2 z m 0,-8.26 c 0,1.1 -0.9,2 -2,2 -1.1,0 -2,-0.9 -2,-2 0,-1.1 0.9,-2 2,-2 1.1,0 2,0.9 2,2 z m 0,-8.27 c 0,1.1 -0.9,2 -2,2 -1.1,0 -2,-0.9 -2,-2 0,-1.1 0.9,-2 2,-2 1.1,0 2,0.9 2,2 z m 0,-8.27 c 0,1.1 -0.9,2 -2,2 -1.1,0 -2,-0.9 -2,-2 0,-1.1 0.9,-2 2,-2 1.1,0 2,0.9 2,2 z m 0,-8.26 c 0,1.1 -0.9,2 -2,2 -1.1,0 -2,-0.9 -2,-2 0,-1.1 0.9,-2 2,-2 1.1,0 2,0.9 2,2 z m 0,-8.27 c 0,1.1 -0.9,2 -2,2 -1.1,0 -2,-0.9 -2,-2 0,-1.1 0.9,-2 2,-2 1.1,0 2,0.9 2,2 z m 0,-8.27 c 0,1.1 -0.9,2 -2,2 -1.1,0 -2,-0.9 -2,-2 0,-1.1 0.9,-2 2,-2 1.1,0 2,0.9 2,2 z m 0,-8.26 c 0,1.1 -0.9,2 -2,2 -1.1,0 -2,-0.9 -2,-2 0,-1.1 0.9,-2 2,-2 1.1,0 2,0.9 2,2 z m 0,-8.27 c 0,1.1 -0.9,2 -2,2 -1.1,0 -2,-0.9 -2,-2 0,-1.1 0.9,-2 2,-2 1.1,0 2,0.9 2,2 z m 0,-8.27 c 0,1.1 -0.9,2 -2,2 -1.1,0 -2,-0.9 -2,-2 0,-1.1 0.9,-2 2,-2 1.1,0 2,0.9 2,2 z m 0,-8.26 c 0,1.1 -0.9,2 -2,2 -1.1,0 -2,-0.9 -2,-2 0,-1.1 0.9,-2 2,-2 1.1,0 2,0.9 2,2 z m 0,-8.27 c 0,1.1 -0.9,2 -2,2 -1.1,0 -2,-0.9 -2,-2 0,-1.1 0.9,-2 2,-2 1.1,0 2,0.9 2,2 z m 0,-8.27 c 0,1.1 -0.9,2 -2,2 -1.1,0 -2,-0.9 -2,-2 0,-1.1 0.9,-2 2,-2 1.1,0 2,0.9 2,2 z m 0,-8.26 c 0,1.1 -0.9,2 -2,2 -1.1,0 -2,-0.9 -2,-2 0,-1.1 0.9,-2 2,-2 1.1,0 2,0.9 2,2 z"
       fill="#3d4752"
       id="path152" />
    <use
       xlink:href="#V"
       transform="translate(346.33333,1235.3333)"
       id="use154"
       x="0"
       y="0"
       width="100%"
       height="100%" />
  </g>
  <path
     d="m 313.2,945 c 0,1.1 -0.9,2 -2,2 -1.1,0 -2,-0.9 -2,-2 0,-1.1 0.9,-2 2,-2 1.1,0 2,0.9 2,2 z m 0,8.3 c 0,1.12 -0.9,2 -2,2 -1.1,0 -2,-0.88 -2,-2 0,-1.1 0.9,-2 2,-2 1.1,0 2,0.9 2,2 z m 0,8.33 c 0,1.1 -0.9,2 -2,2 -1.1,0 -2,-0.9 -2,-2 0,-1.1 0.9,-2 2,-2 1.1,0 2,0.9 2,2 z m 0,8.3 c 0,1.12 -0.9,2 -2,2 -1.1,0 -2,-0.88 -2,-2 0,-1.1 0.9,-2 2,-2 1.1,0 2,0.9 2,2 z m 0,8.33 c 0,1.1 -0.9,2 -2,2 -1.1,0 -2,-0.9 -2,-2 0,-1.1 0.9,-2 2,-2 1.1,0 2,0.9 2,2 z m 0,8.3 c 0,1.1 -0.9,2 -2,2 -1.1,0 -2,-0.9 -2,-2 0,-1.1 0.9,-2 2,-2 1.1,0 2,0.9 2,2 z m 0,8.32 c 0,1.1 -0.9,2 -2,2 -1.1,0 -2,-0.9 -2,-2 0,-1.1 0.9,-2 2,-2 1.1,0 2,0.9 2,2 z m -0.2,8.13 c 0,1.1 -0.9,2 -2,2 -1.1,0 -2,-0.9 -2,-2 0,-1.1 0.9,-2 2,-2 1.1,0 2,0.9 2,2 z m 0,8.32 c 0,1.1 -0.9,2 -2,2 -1.1,0 -2,-0.9 -2,-2 0,-1.1 0.9,-2 2,-2 1.1,0 2,0.9 2,2 z m 0,8.3 c 0,1.12 -0.9,2 -2,2 -1.1,0 -2,-0.88 -2,-2 0,-1.1 0.9,-2 2,-2 1.1,0 2,0.9 2,2 z m 0,8.33 c 0,1.1 -0.9,2 -2,2 -1.1,0 -2,-0.9 -2,-2 0,-1.1 0.9,-2 2,-2 1.1,0 2,0.9 2,2 z m 0,8.3 c 0,1.12 -0.9,2 -2,2 -1.1,0 -2,-0.88 -2,-2 0,-1.1 0.9,-2 2,-2 1.1,0 2,0.9 2,2 z"
     fill="#3d4752"
     id="path158" />
  <path
     d="m 313.2,945.05 h -4 V 943 h 4 z"
     fill="#3d4752"
     id="path160" />
  <path
     d="m 311,1052.53 -4.64,-14.27 h 9.28 z"
     stroke="#3d4752"
     stroke-width="4"
     fill="#3d4752"
     id="path162" />
  <path
     d="m 201,945 v 91.26"
     stroke="#3d4752"
     stroke-width="4"
     fill="none"
     id="path164" />
  <path
     d="m 203,945.05 h -4 V 943 h 4 z"
     fill="#3d4752"
     id="path166" />
  <path
     d="m 201,1052.53 -4.64,-14.27 h 9.28 z"
     stroke="#3d4752"
     stroke-width="4"
     fill="#3d4752"
     id="path168" />
  <path
     d="m 80.8,945 v 56 H 81 v 35.26"
     stroke="#3d4752"
     stroke-width="4"
     fill="none"
     id="path170" />
  <path
     d="m 82.8,945.05 h -4 V 943 h 4 z"
     fill="#3d4752"
     id="path172" />
  <path
     d="m 81,1052.53 -4.64,-14.27 h 9.28 z"
     stroke="#3d4752"
     stroke-width="4"
     fill="#3d4752"
     id="path174" />
</svg>
